<svg width="360" height="2217" viewBox="0 0 360 2217" fill="none" xmlns="http://www.w3.org/2000/svg">
<path d="M-15.2192 1650.81L26.452 1611.58L629.134 1850.71L531.112 1866.69L-15.2192 1650.81Z" fill="#EE0202" stroke="#EE0202"/>
<path d="M530.784 1867.64L628.751 1959.58L-251.417 1612.27L-16.2697 1651.47L530.784 1867.64Z" fill="#790000" stroke="#790000"/>
<path d="M523.219 1791.81L481.548 1752.58L-121.134 1991.71L-23.1119 2007.69L523.219 1791.81Z" fill="#EE0202" stroke="#EE0202"/>
<path d="M-22.7839 2008.64L-120.751 2100.58L759.417 1753.27L524.27 1792.47L-22.7839 2008.64Z" fill="#790000" stroke="#790000"/>
<path d="M-143.219 1205.81L-101.548 1166.58L501.134 1405.71L403.112 1421.69L-143.219 1205.81Z" fill="#EE0202" stroke="#EE0202"/>
<path d="M402.784 1422.64L500.751 1514.58L-379.417 1167.27L-144.27 1206.47L402.784 1422.64Z" fill="#790000" stroke="#790000"/>
<path d="M502.219 1402.81L460.548 1363.58L-142.134 1602.71L-44.1119 1618.69L502.219 1402.81Z" fill="#EE0202" stroke="#EE0202"/>
<path d="M-43.7839 1619.64L-141.751 1711.58L738.417 1364.27L503.27 1403.47L-43.7839 1619.64Z" fill="#790000" stroke="#790000"/>
<path d="M502.219 1008.81L460.548 969.582L-142.134 1208.71L-44.1119 1224.69L502.219 1008.81Z" fill="#EE0202" stroke="#EE0202"/>
<path d="M-43.7839 1225.64L-141.751 1317.58L738.417 970.271L503.27 1009.47L-43.7839 1225.64Z" fill="#790000" stroke="#790000"/>
<path d="M-13.2192 863.81L28.452 824.582L631.134 1063.71L533.112 1079.69L-13.2192 863.81Z" fill="#EE0202" stroke="#EE0202"/>
<path d="M532.784 1080.64L630.751 1172.58L-249.417 825.271L-14.2697 864.47L532.784 1080.64Z" fill="#790000" stroke="#790000"/>
<path d="M-141.219 418.81L-99.548 379.582L503.134 618.713L405.112 634.69L-141.219 418.81Z" fill="#EE0202" stroke="#EE0202"/>
<path d="M404.784 635.636L502.751 727.575L-377.417 380.271L-142.27 419.47L404.784 635.636Z" fill="#790000" stroke="#790000"/>
<path d="M504.219 615.81L462.548 576.582L-140.134 815.713L-42.1119 831.69L504.219 615.81Z" fill="#EE0202" stroke="#EE0202"/>
<path d="M-41.7839 832.636L-139.751 924.575L740.417 577.271L505.27 616.47L-41.7839 832.636Z" fill="#790000" stroke="#790000"/>
<path d="M-143.219 20.8102L-101.548 -18.418L501.134 220.713L403.112 236.69L-143.219 20.8102Z" fill="#EE0202" stroke="#EE0202"/>
<path d="M402.784 237.636L500.751 329.575L-379.417 -17.7291L-144.27 21.4704L402.784 237.636Z" fill="#790000" stroke="#790000"/>
<path d="M504.219 221.81L462.548 182.582L-140.134 421.713L-42.1119 437.69L504.219 221.81Z" fill="#EE0202" stroke="#EE0202"/>
<path d="M-41.7839 438.636L-139.751 530.575L740.417 183.271L505.27 222.47L-41.7839 438.636Z" fill="#790000" stroke="#790000"/>
<path d="M-100.219 2015.81L-58.548 1976.58L544.134 2215.71L446.112 2231.69L-100.219 2015.81Z" fill="#EE0202" stroke="#EE0202"/>
<path d="M445.784 2232.64L543.751 2324.58L-336.417 1977.27L-101.27 2016.47L445.784 2232.64Z" fill="#790000" stroke="#790000"/>
<path d="M547.219 2216.81L505.548 2177.58L-97.134 2416.71L0.888123 2432.69L547.219 2216.81Z" fill="#EE0202" stroke="#EE0202"/>
<path d="M1.21613 2433.64L-96.751 2525.58L783.417 2178.27L548.27 2217.47L1.21613 2433.64Z" fill="#790000" stroke="#790000"/>
</svg>
